# Blender v2.79 (sub 0) OBJ File: ''
# www.blender.org
mtllib house1.mtl
o house1
v 0.469961 -0.141206 0.632507
v -0.530039 -0.141206 0.632507
v -0.530039 -0.141206 -0.367493
v 0.469961 -0.141206 -0.367493
v -0.530039 -0.131206 -0.367493
v 0.469961 -0.131206 -0.367493
v 0.469961 -0.131206 0.632507
v -0.530039 -0.131206 0.632507
v -0.331909 -0.131206 -0.267550
v -0.331909 -0.131206 0.240711
v 0.337993 -0.131206 -0.267550
v -0.331909 0.158794 -0.267550
v 0.337993 0.158794 -0.267550
v 0.337993 -0.131206 0.240711
v -0.331909 0.158794 0.240711
v 0.337993 0.158794 0.240711
vn 0.0000 -1.0000 -0.0000
vn 0.0000 0.0000 -1.0000
vn -1.0000 0.0000 0.0000
vn 1.0000 0.0000 0.0000
vn 0.0000 0.0000 1.0000
vn 0.0000 1.0000 -0.0000
usemtl Material.001
s off
f 1//1 2//1 3//1
f 4//1 1//1 3//1
f 5//2 6//2 3//2
f 6//2 4//2 3//2
f 2//3 5//3 3//3
f 6//4 7//4 4//4
f 7//4 1//4 4//4
f 8//3 5//3 2//3
f 1//5 8//5 2//5
f 7//5 8//5 1//5
f 9//6 6//6 5//6
f 10//6 9//6 5//6
f 8//6 10//6 5//6
f 9//6 11//6 6//6
f 11//6 7//6 6//6
f 14//6 7//6 11//6
f 8//6 14//6 10//6
f 8//6 7//6 14//6
usemtl Material.002
f 12//2 11//2 9//2
f 10//3 12//3 9//3
f 13//4 14//4 11//4
f 12//2 13//2 11//2
f 14//5 15//5 10//5
f 15//3 12//3 10//3
f 16//5 15//5 14//5
f 13//4 16//4 14//4
f 16//6 13//6 12//6
f 15//6 16//6 12//6
