# Blender v2.79 (sub 0) OBJ File: ''
# www.blender.org
mtllib road2.mtl
o road2_road2.001
v 0.501886 -0.006544 -0.498113
v -0.498114 -0.006544 0.501887
v -0.498114 -0.006544 -0.498113
v 0.501886 -0.006544 0.501887
v -0.498114 0.013456 -0.498113
v 0.501886 0.013456 -0.498113
v 0.501886 0.013456 -0.368113
v 0.501886 0.003456 -0.368113
v 0.501886 0.003456 -0.013113
v -0.498114 0.013456 0.501887
v -0.368114 0.003456 0.501887
v -0.190614 0.003456 0.501887
v -0.013284 0.003456 0.501887
v 0.025361 0.003456 0.501887
v 0.016716 0.003456 0.501887
v 0.501886 0.003456 0.193736
v 0.501886 0.003456 0.280910
v 0.501886 0.003456 0.016887
v 0.501886 0.003456 0.024931
v 0.501886 0.003456 0.371887
v 0.501886 0.013456 0.501887
v 0.501886 0.003456 0.368084
v 0.371886 0.013456 0.501887
v 0.371886 0.003456 0.501887
v 0.281367 0.003456 0.501887
v 0.194355 0.003456 0.501887
v 0.107342 0.003456 0.501887
v -0.190614 0.003456 0.001887
v -0.190614 0.003456 -0.368113
v -0.368114 0.003456 -0.368113
v -0.368114 0.003456 0.001887
v -0.368114 0.013456 -0.368113
v -0.007913 0.003456 -0.002894
v -0.005614 0.003456 -0.005613
v -0.002864 0.003456 -0.007935
v 0.000262 0.003456 -0.009801
v 0.004185 0.003456 -0.011376
v 0.025361 0.003456 -0.368113
v -0.009793 0.003456 0.000245
v 0.033836 0.003456 -0.013113
v 0.107342 0.003456 -0.368113
v 0.025361 0.003456 0.001887
v 0.009339 0.003456 -0.012568
v 0.016886 0.003456 -0.013113
v 0.093836 0.003456 -0.013113
v 0.107342 0.003456 0.001887
v 0.120849 0.003456 -0.013113
v 0.194355 0.003456 -0.368113
v 0.207861 0.003456 -0.013113
v 0.281367 0.003456 -0.368113
v 0.194355 0.003456 0.001887
v 0.180849 0.003456 -0.013113
v 0.267861 0.003456 -0.013113
v 0.294874 0.003456 -0.013113
v 0.281367 0.003456 0.001887
v 0.471886 0.003456 -0.013113
v 0.354874 0.003456 -0.013113
v 0.381886 0.003456 -0.013113
v 0.441886 0.003456 -0.013113
v 0.016886 0.003456 0.001887
v 0.016886 0.008456 -0.013113
v 0.033836 0.003456 0.001887
v 0.033836 0.008456 -0.013113
v 0.093836 0.008456 -0.013113
v 0.093836 0.003456 0.001887
v 0.120849 0.003456 0.001887
v 0.120849 0.008456 -0.013113
v 0.180849 0.008456 -0.013113
v 0.180849 0.003456 0.001887
v 0.207861 0.003456 0.001887
v 0.207861 0.008456 -0.013113
v 0.267861 0.008456 -0.013113
v 0.267861 0.003456 0.001887
v 0.294874 0.003456 0.001887
v 0.294874 0.008456 -0.013113
v 0.354874 0.008456 -0.013113
v 0.294874 0.008456 0.016887
v 0.354874 0.003456 0.001887
v 0.381886 0.003456 0.001887
v 0.381886 0.008456 -0.013113
v 0.441886 0.008456 -0.013113
v 0.381886 0.008456 0.016887
v 0.441886 0.003456 0.001887
v 0.471886 0.003456 0.001887
v 0.471886 0.008456 0.016887
v 0.471886 0.008456 -0.013113
v 0.501886 0.008456 -0.013113
v 0.501886 0.008456 0.016887
v 0.009339 0.008456 -0.012568
v 0.004185 0.008456 -0.011376
v 0.000262 0.008456 -0.009801
v -0.002864 0.008456 -0.007935
v -0.005614 0.008456 -0.005613
v -0.007913 0.008456 -0.002894
v -0.009793 0.008456 0.000245
v -0.368114 0.003456 0.024931
v -0.190614 0.003456 0.024931
v -0.011320 0.003456 0.004008
v -0.013112 0.003456 0.016363
v -0.012467 0.003456 0.008722
v 0.033836 0.003456 0.016887
v 0.025361 0.003456 0.024931
v 0.107342 0.003456 0.024931
v 0.120849 0.003456 0.016887
v 0.207861 0.003456 0.016887
v 0.194355 0.003456 0.024931
v 0.281367 0.003456 0.024931
v 0.294874 0.003456 0.016887
v 0.016886 0.003456 0.016887
v 0.016886 0.008456 0.016887
v 0.033836 0.008456 0.016887
v 0.093836 0.003456 0.016887
v 0.120849 0.008456 0.016887
v 0.180849 0.003456 0.016887
v 0.207861 0.008456 0.016887
v 0.267861 0.003456 0.016887
v 0.354874 0.003456 0.016887
v 0.381886 0.003456 0.016887
v 0.354874 0.008456 0.016887
v 0.441886 0.003456 0.016887
v 0.471886 0.003456 0.016887
v 0.441886 0.008456 0.016887
v -0.011320 0.008456 0.004008
v -0.012467 0.008456 0.008722
v -0.013112 0.008456 0.016363
v 0.093836 0.008456 0.016887
v 0.180849 0.008456 0.016887
v 0.267861 0.008456 0.016887
v -0.368114 0.003456 0.193736
v -0.190614 0.003456 0.193736
v -0.368114 0.013456 0.501887
v -0.013114 0.003456 0.092975
v -0.013114 0.003456 0.032975
v 0.016886 0.003456 0.092975
v 0.025361 0.003456 0.193736
v 0.016886 0.003456 0.032975
v 0.107342 0.003456 0.193736
v 0.194355 0.003456 0.193736
v 0.281367 0.003456 0.193736
v -0.013114 0.008456 0.032975
v 0.016886 0.008456 0.032975
v 0.016886 0.008456 0.092975
v -0.013114 0.003456 0.120149
v -0.013114 0.008456 0.092975
v 0.016886 0.003456 0.120149
v -0.013114 0.003456 0.180149
v -0.013114 0.008456 0.120149
v 0.016886 0.008456 0.120149
v 0.016886 0.003456 0.180149
v 0.016886 0.008456 0.180149
v -0.013114 0.008456 0.180149
v -0.368114 0.003456 0.280910
v -0.190614 0.003456 0.280910
v -0.013114 0.003456 0.207323
v -0.013114 0.003456 0.267323
v 0.016886 0.003456 0.207323
v 0.025361 0.003456 0.280910
v 0.107342 0.003456 0.280910
v 0.194355 0.003456 0.280910
v 0.281367 0.003456 0.280910
v -0.013114 0.008456 0.207323
v 0.016886 0.008456 0.207323
v 0.016886 0.003456 0.267323
v 0.016886 0.008456 0.267323
v -0.013114 0.008456 0.267323
v -0.368114 0.003456 0.368084
v -0.190614 0.003456 0.368084
v -0.013114 0.003456 0.294497
v -0.013114 0.003456 0.354497
v 0.016886 0.003456 0.294497
v 0.025361 0.003456 0.368084
v 0.107342 0.003456 0.368084
v 0.194355 0.003456 0.368084
v 0.281367 0.003456 0.368084
v -0.013114 0.008456 0.294497
v 0.016886 0.008456 0.294497
v 0.016886 0.003456 0.354497
v 0.016886 0.008456 0.354497
v -0.013114 0.008456 0.354497
v -0.013284 0.003456 0.471671
v -0.013114 0.003456 0.441671
v -0.013114 0.003456 0.381671
v 0.016886 0.003456 0.441671
v 0.016886 0.003456 0.381671
v 0.371886 0.003456 0.371887
v 0.371886 0.013456 0.371887
v 0.501886 0.013456 0.371887
v -0.013114 0.008456 0.381671
v 0.016886 0.008456 0.381671
v 0.016886 0.008456 0.441671
v -0.013114 0.008456 0.441671
v 0.016716 0.003456 0.471671
v -0.013284 0.008456 0.471671
v 0.016716 0.008456 0.471671
v 0.016716 0.008456 0.501887
v -0.013284 0.008456 0.501887
vn 0.0000 -1.0000 -0.0000
vn 1.0000 0.0000 0.0000
vn 0.0000 0.0000 1.0000
vn 1.0000 0.0001 0.0000
vn 1.0000 -0.0004 0.0000
vn 0.0000 1.0000 0.0000
vn 0.0000 0.0000 -1.0000
vn -1.0000 0.0000 0.0000
vn -0.0721 0.0000 -0.9974
vn -0.2252 0.0000 -0.9743
vn -0.3725 0.0000 -0.9280
vn -0.5127 0.0000 -0.8586
vn -0.6450 0.0000 -0.7641
vn -0.7636 0.0000 -0.6457
vn -0.8579 -0.0000 -0.5137
vn -0.9266 0.0000 -0.3760
vn -0.9716 -0.0000 -0.2364
vn -0.9965 0.0000 -0.0841
vn -0.0174 0.0000 0.9998
usemtl Material.011
s off
f 4//1 2//1 1//1
f 7//2 8//2 1//2
f 8//2 9//2 1//2
f 9//2 4//2 1//2
f 12//3 11//3 2//3
f 13//3 12//3 2//3
f 4//3 14//3 2//3
f 14//3 15//3 2//3
f 15//3 13//3 2//3
f 16//2 17//2 4//2
f 9//4 18//4 4//4
f 18//2 19//2 4//2
f 19//2 16//2 4//2
f 22//5 20//5 4//5
f 17//2 22//2 4//2
f 24//3 25//3 4//3
f 25//3 26//3 4//3
f 26//3 27//3 4//3
f 27//3 14//3 4//3
f 28//6 29//6 30//6
f 31//6 28//6 30//6
f 33//6 34//6 29//6
f 34//6 35//6 29//6
f 35//6 36//6 29//6
f 36//6 37//6 29//6
f 37//6 38//6 29//6
f 28//6 39//6 29//6
f 39//6 33//6 29//6
f 40//6 41//6 38//6
f 42//6 40//6 38//6
f 37//6 43//6 38//6
f 43//6 44//6 38//6
f 44//6 42//6 38//6
f 40//6 45//6 41//6
f 45//6 46//6 41//6
f 46//6 47//6 41//6
f 47//6 48//6 41//6
f 49//6 50//6 48//6
f 51//6 49//6 48//6
f 47//6 52//6 48//6
f 52//6 51//6 48//6
f 49//6 53//6 50//6
f 54//6 8//6 50//6
f 55//6 54//6 50//6
f 53//6 55//6 50//6
f 56//6 9//6 8//6
f 54//6 57//6 8//6
f 57//6 58//6 8//6
f 58//6 59//6 8//6
f 59//6 56//6 8//6
f 60//6 42//6 44//6
f 42//6 62//6 40//6
f 65//6 46//6 45//6
f 46//6 66//6 47//6
f 69//6 51//6 52//6
f 51//6 70//6 49//6
f 73//6 55//6 53//6
f 55//6 74//6 54//6
f 78//6 79//6 57//6
f 79//6 58//6 57//6
f 83//6 84//6 59//6
f 84//6 56//6 59//6
f 32//2 96//2 31//2
f 97//6 28//6 31//6
f 96//6 97//6 31//6
f 98//6 39//6 28//6
f 99//6 100//6 28//6
f 100//6 98//6 28//6
f 97//6 99//6 28//6
f 101//6 62//6 42//6
f 102//6 101//6 42//6
f 60//6 102//6 42//6
f 65//6 103//6 46//6
f 104//6 66//6 46//6
f 103//6 104//6 46//6
f 105//6 70//6 51//6
f 106//6 105//6 51//6
f 69//6 106//6 51//6
f 73//6 107//6 55//6
f 108//6 74//6 55//6
f 107//6 108//6 55//6
f 109//6 102//6 60//6
f 112//6 103//6 65//6
f 114//6 106//6 69//6
f 116//6 107//6 73//6
f 117//6 118//6 78//6
f 118//6 79//6 78//6
f 120//6 121//6 83//6
f 121//6 84//6 83//6
f 97//6 102//6 99//6
f 102//6 109//6 99//6
f 102//6 112//6 101//6
f 102//6 103//6 112//6
f 103//6 114//6 104//6
f 103//6 106//6 114//6
f 106//6 116//6 105//6
f 106//6 107//6 116//6
f 107//6 117//6 108//6
f 107//6 19//6 117//6
f 19//6 118//6 117//6
f 19//6 120//6 118//6
f 19//6 121//6 120//6
f 19//6 18//6 121//6
f 129//6 130//6 96//6
f 130//6 97//6 96//6
f 132//6 133//6 97//6
f 133//6 102//6 97//6
f 130//6 132//6 97//6
f 134//6 135//6 102//6
f 133//6 136//6 102//6
f 136//6 134//6 102//6
f 135//6 137//6 102//6
f 137//6 103//6 102//6
f 137//6 138//6 103//6
f 138//6 106//6 103//6
f 138//6 139//6 106//6
f 139//6 107//6 106//6
f 139//6 16//6 107//6
f 16//6 19//6 107//6
f 130//6 143//6 132//6
f 143//6 134//6 132//6
f 143//6 145//6 134//6
f 145//6 135//6 134//6
f 130//6 146//6 143//6
f 149//6 135//6 145//6
f 130//6 135//6 146//6
f 135//6 149//6 146//6
f 152//6 153//6 129//6
f 153//6 130//6 129//6
f 131//2 152//2 129//2
f 154//6 135//6 130//6
f 155//6 154//6 130//6
f 153//6 155//6 130//6
f 156//6 157//6 135//6
f 154//6 156//6 135//6
f 157//6 158//6 135//6
f 158//6 137//6 135//6
f 158//6 159//6 137//6
f 159//6 138//6 137//6
f 159//6 160//6 138//6
f 160//6 139//6 138//6
f 160//6 17//6 139//6
f 17//6 16//6 139//6
f 163//6 157//6 156//6
f 157//6 163//6 155//6
f 153//6 157//6 155//6
f 166//6 167//6 152//6
f 167//6 153//6 152//6
f 131//2 166//2 152//2
f 168//6 157//6 153//6
f 169//6 168//6 153//6
f 167//6 169//6 153//6
f 170//6 171//6 157//6
f 168//6 170//6 157//6
f 171//6 172//6 157//6
f 172//6 158//6 157//6
f 172//6 173//6 158//6
f 173//6 159//6 158//6
f 173//6 174//6 159//6
f 174//6 160//6 159//6
f 174//6 22//6 160//6
f 22//6 17//6 160//6
f 177//6 171//6 170//6
f 171//6 177//6 169//6
f 167//6 171//6 169//6
f 11//6 12//6 166//6
f 12//6 167//6 166//6
f 131//2 11//2 166//2
f 12//6 13//6 167//6
f 13//6 180//6 167//6
f 181//6 182//6 167//6
f 180//6 181//6 167//6
f 182//6 171//6 167//6
f 183//6 14//6 171//6
f 184//6 183//6 171//6
f 182//6 184//6 171//6
f 14//6 27//6 171//6
f 27//6 172//6 171//6
f 27//6 26//6 172//6
f 26//6 173//6 172//6
f 26//6 25//6 173//6
f 25//6 174//6 173//6
f 25//6 24//6 174//6
f 24//6 185//6 174//6
f 185//6 22//6 174//6
f 185//6 20//6 22//6
f 180//6 183//6 181//6
f 180//6 192//6 183//6
f 192//6 14//6 183//6
f 15//6 14//6 192//6
usemtl Material.012
f 1//1 2//1 3//1
f 5//7 6//7 3//7
f 6//7 1//7 3//7
f 2//8 5//8 3//8
f 6//2 7//2 1//2
f 10//8 5//8 2//8
f 11//3 10//3 2//3
f 20//2 21//2 4//2
f 21//3 23//3 4//3
f 23//3 24//3 4//3
f 32//2 31//2 30//2
f 29//3 32//3 30//3
f 38//3 32//3 29//3
f 41//3 32//3 38//3
f 7//3 32//3 41//3
f 48//3 7//3 41//3
f 50//3 7//3 48//3
f 8//3 7//3 50//3
f 131//2 129//2 96//2
f 32//2 131//2 96//2
f 186//7 20//7 185//7
f 24//8 186//8 185//8
f 187//2 21//2 20//2
f 186//7 187//7 20//7
f 131//3 10//3 11//3
f 23//8 186//8 24//8
f 32//6 6//6 5//6
f 131//6 32//6 5//6
f 10//6 131//6 5//6
f 32//6 7//6 6//6
f 23//6 187//6 186//6
f 23//6 21//6 187//6
usemtl Material.013
f 61//2 60//2 44//2
f 43//9 61//9 44//9
f 63//7 64//7 40//7
f 64//7 45//7 40//7
f 62//8 63//8 40//8
f 64//2 65//2 45//2
f 67//7 68//7 47//7
f 68//7 52//7 47//7
f 66//8 67//8 47//8
f 68//2 69//2 52//2
f 71//7 72//7 49//7
f 72//7 53//7 49//7
f 70//8 71//8 49//8
f 72//2 73//2 53//2
f 75//7 76//7 54//7
f 76//7 57//7 54//7
f 77//8 75//8 54//8
f 74//8 77//8 54//8
f 76//2 78//2 57//2
f 80//7 81//7 58//7
f 81//7 59//7 58//7
f 82//8 80//8 58//8
f 79//8 82//8 58//8
f 81//2 83//2 59//2
f 85//8 86//8 56//8
f 84//8 85//8 56//8
f 86//7 87//7 56//7
f 87//7 9//7 56//7
f 87//2 88//2 9//2
f 88//2 18//2 9//2
f 89//9 61//9 43//9
f 37//10 89//10 43//10
f 90//10 89//10 37//10
f 36//11 90//11 37//11
f 91//11 90//11 36//11
f 35//12 91//12 36//12
f 92//12 91//12 35//12
f 34//13 92//13 35//13
f 93//13 92//13 34//13
f 33//14 93//14 34//14
f 94//14 93//14 33//14
f 39//15 94//15 33//15
f 95//15 94//15 39//15
f 61//2 110//2 60//2
f 110//2 109//2 60//2
f 101//8 111//8 62//8
f 111//8 63//8 62//8
f 64//2 112//2 65//2
f 104//8 113//8 66//8
f 113//8 67//8 66//8
f 68//2 114//2 69//2
f 105//8 115//8 70//8
f 115//8 71//8 70//8
f 72//2 116//2 73//2
f 108//8 77//8 74//8
f 76//2 119//2 78//2
f 119//2 117//2 78//2
f 118//8 82//8 79//8
f 81//2 122//2 83//2
f 122//2 120//2 83//2
f 121//8 85//8 84//8
f 123//16 95//16 39//16
f 98//16 123//16 39//16
f 100//17 123//17 98//17
f 124//17 123//17 100//17
f 99//18 124//18 100//18
f 125//18 124//18 99//18
f 109//19 125//19 99//19
f 110//19 125//19 109//19
f 112//3 111//3 101//3
f 126//3 111//3 112//3
f 64//2 126//2 112//2
f 114//3 113//3 104//3
f 127//3 113//3 114//3
f 68//2 127//2 114//2
f 116//3 115//3 105//3
f 128//3 115//3 116//3
f 72//2 128//2 116//2
f 117//3 77//3 108//3
f 119//3 77//3 117//3
f 120//3 82//3 118//3
f 122//3 82//3 120//3
f 18//3 85//3 121//3
f 88//3 85//3 18//3
f 140//7 141//7 133//7
f 141//7 136//7 133//7
f 132//8 140//8 133//8
f 141//2 142//2 136//2
f 142//2 134//2 136//2
f 134//3 144//3 132//3
f 144//8 140//8 132//8
f 142//3 144//3 134//3
f 147//7 148//7 143//7
f 148//7 145//7 143//7
f 146//8 147//8 143//8
f 148//2 150//2 145//2
f 150//2 149//2 145//2
f 149//3 151//3 146//3
f 151//8 147//8 146//8
f 150//3 151//3 149//3
f 161//7 162//7 154//7
f 162//7 156//7 154//7
f 155//8 161//8 154//8
f 162//2 164//2 156//2
f 164//2 163//2 156//2
f 163//3 165//3 155//3
f 165//8 161//8 155//8
f 164//3 165//3 163//3
f 175//7 176//7 168//7
f 176//7 170//7 168//7
f 169//8 175//8 168//8
f 176//2 178//2 170//2
f 178//2 177//2 170//2
f 177//3 179//3 169//3
f 179//8 175//8 169//8
f 178//3 179//3 177//3
f 188//7 189//7 182//7
f 189//7 184//7 182//7
f 181//8 188//8 182//8
f 189//2 190//2 184//2
f 190//2 183//2 184//2
f 191//8 188//8 181//8
f 183//3 191//3 181//3
f 190//3 191//3 183//3
f 193//7 194//7 180//7
f 194//7 192//7 180//7
f 13//8 193//8 180//8
f 194//2 195//2 192//2
f 195//2 15//2 192//2
f 15//3 196//3 13//3
f 196//8 193//8 13//8
f 195//3 196//3 15//3
f 89//6 110//6 61//6
f 111//6 126//6 63//6
f 126//6 64//6 63//6
f 113//6 127//6 67//6
f 127//6 68//6 67//6
f 115//6 128//6 71//6
f 128//6 72//6 71//6
f 77//6 119//6 75//6
f 119//6 76//6 75//6
f 82//6 81//6 80//6
f 82//6 122//6 81//6
f 85//6 87//6 86//6
f 85//6 88//6 87//6
f 90//6 110//6 89//6
f 91//6 110//6 90//6
f 92//6 110//6 91//6
f 93//6 110//6 92//6
f 94//6 110//6 93//6
f 95//6 110//6 94//6
f 123//6 110//6 95//6
f 124//6 110//6 123//6
f 125//6 110//6 124//6
f 142//6 141//6 140//6
f 144//6 142//6 140//6
f 150//6 148//6 147//6
f 151//6 150//6 147//6
f 164//6 162//6 161//6
f 165//6 164//6 161//6
f 178//6 176//6 175//6
f 179//6 178//6 175//6
f 191//6 189//6 188//6
f 191//6 190//6 189//6
f 196//6 194//6 193//6
f 196//6 195//6 194//6
